<svg width="100%" height="100%" viewBox="0 0 44 44" fill="none" xmlns="http://www.w3.org/2000/svg">
<path d="M17.1222 0.15625L15.4317 0.610375L16.5244 4.6855C14.1022 5.44262 11.8069 6.71547 9.81248 8.50581L6.86216 5.55569L5.62298 6.79506L8.56448 9.73638C6.73945 11.7168 5.43191 14.0048 4.64451 16.4248L0.677664 15.3614L0.223633 17.0548L4.18457 18.1154C3.61673 20.6747 3.60735 23.3331 4.15223 25.8966L0.223727 26.9481L0.677758 28.6416L4.59763 27.5897C5.2251 29.5796 6.20207 31.4827 7.52732 33.2031L4.71763 38.1426L3.1417 40.917L5.91294 39.338L10.8495 36.5283C12.5755 37.8611 14.4855 38.843 16.4834 39.4728L15.4315 43.3956L17.1221 43.8466L18.1738 39.918C20.7374 40.4625 23.3954 40.451 25.955 39.8828L27.0155 43.8466L28.7089 43.3956L27.6454 39.4229C30.0653 38.6354 32.3533 37.3308 34.3337 35.506L37.2751 38.4472L38.5145 37.208L35.5642 34.2577C37.3539 32.264 38.6245 29.9698 39.3817 27.5487L43.4626 28.6415L43.9138 26.9481L39.824 25.8526C40.3565 23.3172 40.3468 20.6907 39.7918 18.1592L43.9139 17.0548L43.4627 15.3614L39.3351 16.4688C38.7042 14.5126 37.7338 12.6447 36.4258 10.9521L39.2355 6.01562L40.8145 3.24409L38.0401 4.82322L33.1036 7.63291C31.4163 6.33212 29.5529 5.36434 27.6045 4.73547L28.7092 0.610469L27.0156 0.15625L25.9112 4.27844C23.38 3.72297 20.7531 3.71125 18.2177 4.24319L17.1222 0.15625ZM36.0184 8.125L25.8672 25.9668L25.7969 26.0078L21.9677 22.1758L8.02523 36.1183L7.82029 36.2355L18.0508 18.2589L21.9676 22.1758L36.0186 8.125H36.0184ZM21.9853 9.11819C24.0345 9.11819 26.0838 9.6025 27.9473 10.5685L17.0137 16.7881L16.8056 16.9081L16.6856 17.1162L10.4746 28.0293C7.94882 23.1505 8.72938 17.004 12.8212 12.9121C15.3515 10.3819 18.6693 9.11819 21.9853 9.11819H21.9853ZM33.4903 16.1114C36.021 20.9914 35.2407 27.1431 31.1464 31.2373C27.0533 35.3306 20.903 36.1127 16.0234 33.5841L26.9395 27.3702L27.1504 27.253L27.2676 27.0421L33.4903 16.1116L33.4903 16.1114Z" fill="white"/>
</svg>
