<svg width="100%" height="100%" viewBox="0 0 40 46" fill="none" xmlns="http://www.w3.org/2000/svg">
<path d="M19.25 0.903137L2.78094 11.4313L19.25 11.075V0.903137ZM20.75 0.903137V11.075L37.2219 11.4313L20.75 0.903137ZM25.5687 6.42501C26.1406 6.75314 26.3375 7.10001 26.9844 6.81876C27.9875 6.89376 29.075 7.36251 29.5719 8.29064C30.0125 8.71251 29.7125 9.47189 29.0844 9.47189C28.175 9.48126 27.2375 8.90001 27.7156 8.69376C28.1562 8.50626 29.0937 8.77814 28.6531 8.17814C28.3156 7.75626 27.6219 7.44689 27.125 7.62501C26.975 8.26251 26.2437 8.00001 26 7.55939C25.7844 7.01564 25.1469 6.79064 24.5938 6.81876C24.0219 7.07189 24.7437 7.64376 25.0906 7.74689C25.8312 7.95314 25.1094 8.45001 24.7063 8.22501C24.3125 8.00001 23.3 7.32501 23.4406 6.50939C23.9844 5.81658 24.9219 6.07626 25.5687 6.42501ZM15.3969 6.09689C15.9125 6.14376 16.55 6.37814 16.3531 7.02501C15.95 7.68126 15.4344 8.25314 14.6562 8.41251C14.0469 8.73126 13.2594 8.82501 12.6312 8.59064C12.2844 8.37501 11.3656 7.71876 11.2344 8.27189C11.0375 9.65939 11.3 9.50001 10.1937 9.94064V7.65314C11.1219 7.28751 12.1719 7.23126 13.0344 7.77501C13.7844 8.16876 14.8531 7.91564 15.3031 7.24064C15.4344 6.63126 14.5437 6.80939 14.1594 6.92189C13.9062 6.15314 14.9 6.21876 15.3969 6.09689ZM18.6781 12.5844L1.19281 12.9688L7.86875 31.0531L18.6781 12.5844ZM21.3219 12.5844L32.1312 31.0531L38.8063 12.9688L21.3219 12.5844ZM20 13.2875L9.02187 32.0563H30.9781L20 13.2875ZM32.4969 15.2656C33.8 16.0438 34.5125 17.7219 34.5687 19.2969C34.4469 20.5719 34.5031 21.1531 33.1438 21.3031C31.7844 21.4531 30.9031 19.5031 30.3594 18.2469C30.0406 17.3188 29.8156 15.9969 30.5188 15.3125C31.0906 14.8625 31.925 14.9281 32.4969 15.2656ZM11.525 16.775C11.7219 17.15 11.4781 17.8438 11.075 17.9094C10.6156 17.975 10.7187 17.0375 10.1937 16.8219C9.54687 16.6063 8.91875 17.3469 8.7875 17.9094C9.7625 17.5344 10.6906 18.575 10.6906 19.5031C10.6531 20.6 9.95 21.8281 8.84375 22.1375H8.31875C7.12812 22.0719 6.60312 20.6563 6.9875 19.6438C7.4 18.1625 8 16.4656 9.5375 15.8375C10.3344 15.4719 11.3188 16.1375 11.525 16.775ZM31.5781 15.9875C30.9125 15.9781 31.1656 16.925 31.2688 17.3469C31.5969 18.425 31.9531 19.8406 33.0406 20.1594C33.6781 20.0469 33.4531 18.9594 33.3875 18.6125C32.9469 17.5906 32.7219 16.4281 31.5781 15.9875ZM0.875 16.4375V32.675L6.67813 32.1406L0.875 16.4375ZM39.125 16.4375L33.3219 32.1406L39.125 32.675V16.4375ZM28.0719 16.5031L30.7438 22.4563L29.8063 22.8688L27.9313 18.8094C27.3594 19.0906 26.7125 19.6438 26.5625 18.6781C26.4406 18.3125 27.3594 18.2 27.3219 17.5625C27.2938 16.9156 27.5281 16.4188 28.0719 16.5031ZM8.19688 19.0719C7.97188 19.55 7.8125 20.0375 7.94375 20.5625C8.10313 21.3875 9.20938 21.1625 9.40625 20.4875C9.65938 20.0188 9.77188 19.3906 9.35938 19.0156C8.975 18.6969 8.525 18.7531 8.19688 19.0719ZM38.9844 22.9719C38.975 24.7156 39.0875 26.6469 38.075 28.1563C37.9906 28.2688 37.8688 28.3344 37.7281 28.3906C37.1844 28.0063 37.4469 27.3313 37.8406 26.9375C37.9344 27.6219 38.3563 26.6656 38.4594 26.4125C38.5812 26.1125 38.7969 24.7531 38.3656 25.4563C38.4312 25.8313 37.7281 26.6844 37.4938 26.2156C37.025 24.8656 37.4938 23.3563 38.15 22.1375C38.6844 21.5563 39.0781 22.55 38.9844 22.9719ZM1.61844 22.0156C1.67375 22.025 1.74406 22.1094 1.85094 22.3531V28.0813C1.16656 27.425 1.43187 26.3938 1.43375 25.6063C1.43375 24.8188 1.58844 24.0781 1.31375 23.4313C0.880625 23.2719 0.770937 21.8375 1.01656 22.2406C1.43 22.6906 1.45344 21.9875 1.61844 22.0156ZM18.3781 22.7281C19.1375 23.15 19.6719 24.0781 19.3906 24.9406C19.1938 26.3656 16.8594 26.9188 16.5406 27.725C16.4281 28.0063 18.9219 27.875 19.3719 27.875C19.4188 28.25 19.5125 28.8781 19.0156 28.9719C17.6562 28.8594 16.2125 28.9156 14.7875 28.9156C14.825 27.8656 15.4812 26.9188 16.3812 26.4031C17.0281 25.9438 17.825 25.5313 18.0781 24.725C18.2469 24.3031 18.0219 23.8531 17.6469 23.6469C17.2531 23.375 16.6156 23.4313 16.4094 23.9C16.2219 24.2563 15.9969 24.7531 15.5938 24.8C15.3219 24.8375 14.75 24.8469 14.9188 24.3406C15.05 23.8156 15.2375 23.2625 15.6875 22.9156C16.5125 22.325 17.5531 22.2875 18.3781 22.7281ZM23.375 22.5969C24.0125 22.8031 24.5 23.3375 24.7156 23.9656C25.2875 25.3438 25.2312 27.0688 24.3031 28.2688C23.8812 28.7188 23.3469 29.1219 22.7094 29.1219C21.5375 29.1125 20.6094 28.0813 20.3844 26.9844C20.0938 25.7281 20.2156 24.2938 21.0312 23.2531C21.6688 22.5406 22.5312 22.2875 23.375 22.5969ZM38.0094 23.3563C37.8594 23.9094 37.7 24.6125 37.9437 25.1656C38.4219 24.9781 38.45 24.2656 38.5625 23.8063C38.6469 23.2344 38.2344 22.625 38.0094 23.3563ZM21.4906 25.3344C21.5469 26.3188 21.65 27.4719 22.4 27.9781C22.8594 28.1469 23.3094 27.7719 23.4406 27.35C23.6188 26.7594 23.6562 26.1406 23.6656 25.5313C23.6469 24.8656 23.525 24.125 23.0375 23.6469C21.8937 23.2344 21.6031 24.6688 21.4906 25.3344ZM36.6875 24.0125V29.75L36.275 30.3781V26.4125C35.8438 27.1156 35.4219 27.2656 35.7031 26.3281C36.275 25.6625 36.1531 24.6969 36.6875 24.0125ZM3.86094 25.1563C3.93594 25.4938 4.34094 26.825 4.05219 26.5438C3.8675 26.4219 3.71281 26.0844 3.7325 25.9719C3.58719 25.6906 3.455 25.4 3.33781 25.1094C3.06125 25.4844 2.96656 25.8875 3.04344 26.3656C3.06219 26.2156 3.15406 26.15 3.36125 26.3C4.09625 27.4813 4.50219 29.0281 4.04469 30.3781L3.83656 30.4813C2.86531 29.9375 2.76781 28.6625 2.5775 27.6688C2.43219 26.5156 2.50344 25.3531 2.79312 24.2281C3.28062 23.8719 3.65187 24.7344 3.86094 25.1563ZM3.2 27.05C2.81938 27.4906 2.98812 28.25 3.16437 28.775C3.26844 29.2906 3.81313 29.7313 3.7325 28.925C3.79719 27.8844 3.51406 27.7344 3.2 27.05ZM9.425 33.5563L20 45.0969L30.575 33.5563H9.425ZM7.41875 33.5844L2.37125 34.0438L8.39375 37.8969C8.15 37.6438 7.93437 37.3625 7.72812 37.0719C7.24062 36.425 6.74375 35.7969 5.95625 35.5156C5.13594 34.9063 5.5625 35.0188 6.22812 35.2719C6.13437 35.1031 6.1625 35.0281 6.2375 35.0281C6.44375 35.0094 7.025 35.4219 7.15625 35.6188L9.47187 38.5813L15.575 42.4906L7.41875 33.5844ZM32.5813 33.5844L28.6062 37.925C29.2062 37.6344 29.6656 37.1281 30.2 36.7625C30.425 36.6313 30.5469 36.5844 30.6031 36.5844C30.8 36.5844 30.0969 37.25 29.8812 37.55C29 38.4688 28.3812 39.7063 27.2 40.2781L28.9719 37.9813C28.7563 38.1031 28.4094 38.2813 28.2031 38.3656L24.425 42.4906L31.4094 38.0281C31.9156 37.4 31.5875 37.5031 30.875 37.9438L29.8063 38.5063C30.875 37.2219 32.6938 35.8531 33.5563 35.1688C34.4188 34.4844 35.0469 34.25 34.325 35.0281L33.1438 36.5281C34.0813 35.8156 33.2281 36.8938 32.7219 37.0438C32.6563 37.1375 32.5906 37.2313 32.5156 37.3156L37.625 34.0438L32.5813 33.5844ZM18.125 35.1688V39.2375H16.8688V36.425C16.4 36.2938 15.8938 36.5844 15.4344 36.3969C15.0781 36.125 15.5281 35.7594 15.8563 35.8438C16.1656 35.8344 16.5688 35.8625 16.7281 35.5438C17.1406 35.1219 17.6281 35.1313 18.125 35.1688ZM20.8438 35.2156C21.9781 35.3281 23.1125 35.2719 24.275 35.2719C24.4156 35.5531 24.35 36.0031 23.9656 36.0125C23.2437 36.0406 21.9969 35.8625 21.5375 36.0688C20.7687 37.0531 22.0719 36.425 22.6062 36.5563C23.2625 36.6594 24.0125 36.8281 24.3969 37.4188C24.5938 37.7094 24.65 38.1031 24.4625 38.4219C23.9188 39.0594 22.8687 39.5 22.0906 39.4438C21.4062 39.3875 20.6281 39.3406 20.1594 38.7781C19.5594 37.7844 21.1437 38.15 21.3031 38.4781C21.8656 38.975 23.2063 38.6563 23.2438 38.0375C23.3 37.6438 23.0469 37.4469 22.5969 37.3063C22.1469 37.1656 21.4156 37.4 20.975 37.475C20.5344 37.55 20.075 37.5219 20.1312 37.0625C20.2062 36.6688 20.3844 36.3031 20.3844 35.8906C20.3938 35.6094 20.5438 35.2344 20.8438 35.2156ZM33.3594 35.6844C33.3406 35.6656 32.7031 36.2281 32.4313 36.4438L30.95 37.6719C31.9437 37.0625 32.7594 36.5469 33.3594 35.6844ZM10.2031 37.0156C10.4281 37.0156 10.9062 37.4469 11.0844 37.6719L13.5312 40.5875C12.8094 40.3906 12.2844 39.9219 11.8812 39.3031C11.2719 38.6188 10.8219 37.7469 9.89375 37.4656C9.05 36.9969 9.40625 36.8656 10.0906 37.2594C10.0625 37.0813 10.1094 37.0156 10.2031 37.0156Z" fill="white"/>
</svg>
