<svg width="100%" height="100%" viewBox="0 0 46 46" fill="none" xmlns="http://www.w3.org/2000/svg">
<path d="M22.4677 0.733803C20.1183 1.03943 18.0466 3.75883 18.0466 7.23499C18.0466 9.15246 18.7085 10.8509 19.6874 12.0318L20.6364 13.1768L19.1749 13.4516C17.8928 13.693 16.9442 14.3794 16.1494 15.4717C15.3544 16.5639 14.7563 18.0686 14.3376 19.7931C13.566 22.9712 13.4079 26.8446 13.3867 30.2251H17.5123L18.6264 45.1794H27.661L28.6467 30.2251H32.573C32.5718 26.8081 32.5399 22.883 31.8408 19.6801C31.4619 17.9435 30.8868 16.4387 30.0804 15.3564C29.2742 14.2742 28.2795 13.5929 26.8478 13.3707L25.356 13.1394L26.297 11.9591C27.2335 10.7841 27.8626 9.10568 27.8626 7.2348C27.8626 3.52821 25.5399 0.740928 22.9546 0.740928C22.6813 0.740928 22.5089 0.728272 22.4675 0.733616L22.4677 0.733803ZM39.2122 0.834866C36.2242 0.784803 33.4779 3.31671 32.548 6.78705C32.1191 8.38765 32.0952 10.0955 32.4714 11.5784C31.4439 11.701 30.5036 12.0634 29.6803 12.6093C30.2019 12.9449 30.6682 13.3505 31.0778 13.8106C31.8276 13.4079 32.6449 13.2219 33.6169 13.2957L35.0996 13.4082L34.4795 12.0568C33.9301 10.8602 33.7923 8.91152 34.24 7.24024C35.0015 4.39887 37.1917 2.57618 39.1854 2.5893C39.3181 2.59005 39.4502 2.59905 39.581 2.61649L39.5819 2.61668C39.6066 2.62015 39.7523 2.66983 39.9982 2.73574C42.2229 3.33199 43.5985 6.28446 42.7327 9.51612C42.2958 11.1466 41.236 12.7568 40.1995 13.5221L38.9851 14.4188L40.366 15.0283C41.5907 15.5688 42.3193 16.3277 42.7928 17.311C43.2662 18.2941 43.4603 19.5304 43.4346 20.9366C43.3877 23.5024 42.6038 26.5755 41.8221 29.5018L38.3661 28.5756L33.5631 42.9861L29.5609 42.9964L29.4456 44.7486L34.827 44.7349L39.5065 30.6951L43.0639 31.6481L43.2908 30.8021C44.1366 27.6448 45.1285 24.1331 45.1864 20.9686C45.2155 19.3865 45.0092 17.8754 44.3714 16.5507C43.9012 15.5741 43.1812 14.7161 42.2091 14.0549C43.2229 12.9668 44.0117 11.512 44.425 9.9693C45.4833 6.01962 43.8412 1.9518 40.4519 1.04337L40.4516 1.04308C40.3479 1.01533 40.1425 0.923647 39.8132 0.879585H39.8125L39.5464 0.84396L39.5187 0.857647C39.4165 0.84996 39.3139 0.836459 39.2122 0.834772V0.834866ZM6.46342 0.877991C6.04248 0.883241 5.61779 0.940335 5.19423 1.05387C5.18532 1.0563 5.16358 1.06024 5.15298 1.06268L5.09907 1.00887L4.55907 1.23171H4.55889C1.56123 2.4678 0.229044 6.27827 1.22092 9.97999C1.64973 11.5806 2.48279 13.0716 3.55014 14.1678C2.67564 14.822 2.01826 15.6592 1.57642 16.6044C0.966387 17.9097 0.7352 19.4009 0.722356 20.9731C0.697044 24.1178 1.54295 27.6303 2.39298 30.8023L2.61986 31.6486L6.37173 30.643L11.1633 44.6543L16.8314 44.6686L16.7011 42.9161L12.4167 42.9052L7.49992 28.5267L3.86898 29.4997C3.11636 26.6036 2.45354 23.5496 2.47445 20.9872C2.48589 19.5812 2.70104 18.3363 3.16389 17.3459C3.62673 16.3559 4.31139 15.6054 5.40123 15.0819L6.74167 14.4378L5.52854 13.5776C4.45454 12.8161 3.36104 11.1972 2.91329 9.52615C2.10142 6.49662 3.27582 3.65777 5.22451 2.85227L5.22686 2.85133C5.24973 2.84196 5.40123 2.81196 5.64742 2.74633H5.64761L5.64779 2.74605C5.92586 2.67143 6.21076 2.63543 6.49829 2.6359C8.51111 2.63843 10.648 4.42277 11.4055 7.25055C11.8424 8.88105 11.7299 10.8056 11.2148 11.9865L10.6114 13.3703L12.1123 13.2077C13.3644 13.0721 14.3327 13.3234 15.1937 13.8655C15.5954 13.4093 16.0476 13.0058 16.5493 12.6709C16.4809 12.6206 16.4121 12.5713 16.3419 12.5235C15.4466 11.913 14.3941 11.53 13.2217 11.4433C13.5556 9.99396 13.5114 8.33974 13.0981 6.79708C12.172 3.34108 9.41017 0.840397 6.46342 0.877709V0.877991Z" fill="white"/>
</svg>
