<svg width="100%" height="100%" viewBox="0 0 44 42" fill="none" xmlns="http://www.w3.org/2000/svg">
<path d="M8.30329 0.362826L1.63392 5.9207H14.9727L8.30329 0.362732V0.362826ZM35.3033 3.36283L28.6339 8.9207H41.9727L35.3033 3.36273V3.36283ZM19.4434 4.9128L9.23404 13.4206H29.6528L19.4434 4.9128ZM3.14704 7.60811V13.4206H6.59798L13.4595 7.70261V7.60811H3.14704ZM5.30329 8.92061H6.80329V10.6081H5.30329V8.92061ZM30.147 10.6081V11.6359L32.3033 13.4327V11.9205H33.8033V13.608H32.5137L32.5234 13.6162L34.3139 15.1081H30.147V16.4206H37.4595V12.7644H39.147V16.4206H40.4595V10.6081H30.147ZM11.9272 15.1081V16.9906L14.1861 15.1081H11.9272ZM14.567 15.1081L24.4201 23.3189L26.9595 21.2026V15.1081H14.567ZM21.5685 16.4206H24.9187V19.6081H21.5685V16.4206ZM14.3766 17.1462L0.847168 28.4206H27.9062L14.3768 17.1462H14.3766ZM32.9434 18.4128L25.7381 24.4172L28.7421 26.9207H43.1528L32.9434 18.4129V18.4128ZM30.7671 28.6081L30.7768 28.6162L32.5669 30.1081H25.7937V37.3706H31.4594V31.4207H36.1469V37.3707H40.4594V28.6083H30.7671V28.6081ZM4.64704 30.1081V41.6372H16.4595V34.4207H21.147V41.6373H24.1063V30.1083H4.64704V30.1081ZM7.45954 32.9206H12.147V37.6081H7.45954V32.9206Z" fill="white"/>
</svg>
