<svg width="100%" height="100%" viewBox="0 0 45 45" fill="none" xmlns="http://www.w3.org/2000/svg">
<path d="M22.7628 0.631805C10.6025 0.631805 0.728455 10.5087 0.728455 22.6691C0.728455 34.8291 10.6026 44.7059 22.7625 44.7059C34.9225 44.7059 44.7997 34.8291 44.7997 22.6691C44.7997 10.5087 34.9226 0.631805 22.7628 0.631805ZM33.4882 5.44531C39.23 9.02562 43.0479 15.3959 43.0479 22.6691C43.0479 24.2762 42.861 25.84 42.5088 27.3387L39.2979 25.6456L41.3604 30.7901C40.474 32.8195 39.2639 34.6743 37.7979 36.292L33.7518 33.3917L27.6932 37.8655L21.913 38.5186L20.6093 34.6017L15.948 37.1184L9.5643 35.3429L10.4228 38.7736C7.75933 36.7305 5.61995 34.0424 4.23527 30.9396L6.61717 27.5441L9.64061 29.1494L15.1925 28.2236L15.459 24.3885L11.958 24.2275L12.4179 22.5546L15.3035 20.1815L12.951 18.7166L19.2529 15.0986L15.0018 12.3182L8.7557 16.0857L4.12099 14.6532C5.41586 11.6401 7.42192 9.00762 9.92467 6.95974L9.57311 11.1199L13.6396 7.92077L20.3896 10.0039L18.2802 7.43449L20.8437 6.08393L23.3575 8.75281L30.0137 9.67577L29.6856 6.44421L33.5732 7.63081L33.4884 5.44531H33.4882ZM33.5965 16.6981L25.0625 17.7003L27.7724 21.752L28.0683 27.7959L30.8047 29.0937L31.877 26.4336L37.751 30.9951L36.1044 26.5625L36.7051 22.0302L32.6035 19.9002L33.5966 16.6982L33.5965 16.6981ZM19.7187 17.0411L16.7568 19.0274L20.1759 20.4131L21.7402 19.0274L19.7187 17.041V17.0411ZM21.7989 30.6056L23.5508 35.5362L25.4051 31.5459L21.7989 30.6056Z" fill="#0D0D0D"/>
</svg>
